<?xml version="1.0" encoding="UTF-8" standalone="no"?>
<!-- Created with Inkscape (http://www.inkscape.org/) -->

<svg
   xmlns:dc="http://purl.org/dc/elements/1.1/"
   xmlns:cc="http://creativecommons.org/ns#"
   xmlns:rdf="http://www.w3.org/1999/02/22-rdf-syntax-ns#"
   xmlns:svg="http://www.w3.org/2000/svg"
   xmlns="http://www.w3.org/2000/svg"
   xmlns:sodipodi="http://sodipodi.sourceforge.net/DTD/sodipodi-0.dtd"
   xmlns:inkscape="http://www.inkscape.org/namespaces/inkscape"
   width="103.32069mm"
   height="50.689972mm"
   viewBox="0 0 103.32069 50.689972"
   version="1.1"
   id="svg3986"
   inkscape:version="0.92.2 5c3e80d, 2017-08-06"
   sodipodi:docname="flat_cap.svg">
  <defs
     id="defs3980" />
  <sodipodi:namedview
     id="base"
     pagecolor="#ffffff"
     bordercolor="#666666"
     borderopacity="1.0"
     inkscape:pageopacity="0.0"
     inkscape:pageshadow="2"
     inkscape:zoom="0.35"
     inkscape:cx="252.39457"
     inkscape:cy="-327.06506"
     inkscape:document-units="mm"
     inkscape:current-layer="layer1"
     showgrid="false"
     inkscape:window-width="1280"
     inkscape:window-height="755"
     inkscape:window-x="0"
     inkscape:window-y="466"
     inkscape:window-maximized="1" />
  <metadata
     id="metadata3983">
    <rdf:RDF>
      <cc:Work
         rdf:about="">
        <dc:format>image/svg+xml</dc:format>
        <dc:type
           rdf:resource="http://purl.org/dc/dcmitype/StillImage" />
        <dc:title></dc:title>
      </cc:Work>
    </rdf:RDF>
  </metadata>
  <g
     inkscape:label="Layer 1"
     inkscape:groupmode="layer"
     id="layer1"
     transform="translate(-39.053937,-11.607399)">
    <g
       transform="matrix(0.26458333,0,0,0.26458333,-507.53546,-130.03336)"
       id="g3912">
      <path
         class="st12"
         d="m 2435.6,675.3 c -1.4,10.4 -4.8,36 -4.8,36 0,0 -27,6.2 -57.4,9.7 -30.4,3.5 -51.2,1.4 -85.1,-9.7 -48.4,11.1 -125.2,35.3 -203.4,-15.2 -13.8,1.4 -22.1,-10.4 -18,-11.8 4.2,-1.4 24.2,-11.1 24.2,-11.1 19.4,-7.6 144.6,-27.7 149.4,-28.4 4.9,-0.6 195.1,30.5 195.1,30.5 z"
         id="path3904"
         inkscape:connector-curvature="0"
         style="fill:#2c3e48" />
      <path
         class="st13"
         d="m 2083.5,662.2 c -1.6,3.1 2.6,10.4 4.7,12.5 2.1,2.1 52.4,17.1 89.8,25.9 37.4,8.8 59.7,7.8 100.7,9.9 41,2.1 56.6,-7.8 81.5,-15.6 24.9,-7.8 41.5,-2.6 65.4,-12.5 23.9,-9.9 27,-11.9 30.1,-22.3 3.1,-42.5 -2.1,-83 -77.3,-111 -75.2,-28 -148.4,-7.8 -215.3,36.8 -67.2,44.6 -79.6,76.3 -79.6,76.3 z"
         id="path3906"
         inkscape:connector-curvature="0"
         style="fill:#4f697c" />
      <path
         class="st14"
         d="m 2271.6,540.6 c 0.7,4 -4.8,8.2 -12.1,9.4 -7.3,1.2 -13.8,-1 -14.5,-4.9 -0.7,-4 4.8,-8.2 12.1,-9.4 7.4,-1.3 13.9,1 14.5,4.9 z"
         id="path3908"
         inkscape:connector-curvature="0"
         style="fill:#334855" />
      <path
         class="st15"
         d="m 2455.5,660.1 c 2.6,-45.1 -16.6,-74.2 -64.3,-93.9 -56,-23.1 -81.7,-6.7 -77.3,-5.2 36.3,12.5 68,87.2 -19.2,112.6 -87.2,25.4 -181.1,-10.9 -147.9,-49.8 33.2,-38.9 48.8,-32.2 55.5,-37.9 6.7,-5.7 13.3,-24.2 7.3,-21.3 -103.7,49.9 -124.1,93.9 -126.4,99.5 0.2,3.5 3.2,8.8 5,10.5 2.1,2.1 52.4,17.1 89.8,25.9 37.4,8.8 59.7,7.8 100.7,9.9 41,2.1 56.6,-7.8 81.5,-15.6 24.9,-7.8 41.5,-2.6 65.4,-12.5 23.7,-9.7 26.8,-11.8 29.9,-22.2 z"
         id="path3910"
         inkscape:connector-curvature="0"
         style="fill:#3f5461" />
    </g>
  </g>
</svg>
